#N canvas 602 58 708 441 10;
#N canvas 0 22 450 278 (subpatch) 0;
#X array cR 37968 float 0 black black;
#X coords 0 1 37967 -1 200 140 1;
#X restore 499 182 graph;
#X obj 9 117 soundfiler;
#N canvas 0 22 450 278 (subpatch) 0;
#X array cL 37968 float 0 black black;
#X coords 0 1 37967 -1 200 140 1;
#X restore 499 22 graph;
#X obj 9 36 s filename;
#X floatatom 19 144 10 0 0 1 sLength - sLength, f 10;
#X msg 9 90 read -resize \$1 cL cR;
#X floatatom 9 197 10 0 0 1 tLength - tLength, f 10;
#X obj 9 170 expr $f1/44.1;
#X obj 230 434 dac~;
#X obj 240 84 s reference_note;
#X floatatom 240 57 5 0 0 0 - - -, f 5;
#X obj 142 143 r note;
#X obj 559 362 s note;
#X obj 142 197 pack 0 0 0;
#X msg 499 332 60 64;
#X msg 539 332 62 64;
#X msg 579 332 64 64;
#X msg 619 332 65 64;
#X msg 659 332 67 64;
#X obj 19 281 voice;
#X obj 57 281 voice;
#X obj 95 281 voice;
#X obj 133 281 voice;
#X obj 171 281 voice;
#X obj 142 224 route 1 2 3 4 5 6 7 8 9 10 11 12;
#X obj 209 281 voice;
#X obj 247 281 voice;
#X obj 285 281 voice;
#X obj 323 281 voice;
#X obj 361 281 voice;
#X obj 399 281 voice;
#X obj 437 281 voice;
#X obj 353 224 print rejected;
#X obj 142 170 poly 12 1;
#X msg 9 9 symbol ../resources/Sounds/Xylo-C5.wav;
#X obj 139 377 *~ 0.5;
#X obj 344 377 *~ 0.5;
#X obj 9 63 r filename;
#X connect 1 0 4 0;
#X connect 1 0 7 0;
#X connect 5 0 1 0;
#X connect 7 0 6 0;
#X connect 10 0 9 0;
#X connect 11 0 33 0;
#X connect 13 0 24 0;
#X connect 14 0 12 0;
#X connect 15 0 12 0;
#X connect 16 0 12 0;
#X connect 17 0 12 0;
#X connect 18 0 12 0;
#X connect 19 0 35 0;
#X connect 19 1 36 0;
#X connect 20 0 35 0;
#X connect 20 1 36 0;
#X connect 21 0 35 0;
#X connect 21 1 36 0;
#X connect 22 0 35 0;
#X connect 22 1 36 0;
#X connect 23 0 35 0;
#X connect 23 1 36 0;
#X connect 24 0 19 0;
#X connect 24 1 20 0;
#X connect 24 2 21 0;
#X connect 24 3 22 0;
#X connect 24 4 23 0;
#X connect 24 5 25 0;
#X connect 24 6 26 0;
#X connect 24 7 27 0;
#X connect 24 8 28 0;
#X connect 24 9 29 0;
#X connect 24 10 30 0;
#X connect 24 11 31 0;
#X connect 24 12 32 0;
#X connect 25 0 35 0;
#X connect 25 1 36 0;
#X connect 26 0 35 0;
#X connect 26 1 36 0;
#X connect 27 0 35 0;
#X connect 27 1 36 0;
#X connect 28 0 35 0;
#X connect 28 1 36 0;
#X connect 29 0 35 0;
#X connect 29 1 36 0;
#X connect 30 0 35 0;
#X connect 30 1 36 0;
#X connect 31 0 35 0;
#X connect 31 1 36 0;
#X connect 33 0 13 0;
#X connect 33 1 13 1;
#X connect 33 2 13 2;
#X connect 34 0 3 0;
#X connect 35 0 8 0;
#X connect 36 0 8 1;
#X connect 37 0 5 0;
