#N canvas 140 53 454 483 10;
#X obj 147 236 vline~;
#X obj 147 273 tabread4~ cL;
#X obj 91 100 bng 15 250 50 0 empty empty empty 17 7 0 10 -262144 -1
-1;
#X obj 208 155 r sLength;
#X obj 381 108 r tLength;
#X floatatom 328 108 5 1 127 0 - - -, f 5;
#X obj 328 128 mtof;
#X obj 91 63 mtof;
#X floatatom 326 172 10 0 0 0 - - -, f 10;
#X obj 91 9 inlet, f 7;
#X obj 147 461 outlet~;
#X obj 328 87 r reference_note;
#X obj 91 36 unpack f f;
#X obj 276 273 tabread4~ cR;
#X obj 276 461 outlet~;
#X obj 276 155 expr $f3*($f2/$f1);
#X floatatom 168 408 5 0 0 0 - - -, f 5;
#X msg 91 182 0 1;
#X floatatom 297 408 5 0 0 0 - - -, f 5;
#X obj 91 155 delay 5;
#X obj 204 327 delay 6;
#X obj 147 155 delay 10;
#X obj 333 327 delay 6;
#X obj 168 381 line;
#X obj 297 381 line;
#X obj 147 434 *~ 0;
#X obj 276 434 *~ 0;
#X obj 9 300 s triggerBang;
#X obj 168 300 r triggerBang;
#X obj 297 300 r triggerBang;
#X msg 168 355 0 5;
#X msg 204 354 1 4;
#X msg 297 354 0 5;
#X msg 333 354 1 4;
#X obj 147 182 f;
#X obj 147 209 pack f f;
#X connect 0 0 1 0;
#X connect 0 0 13 0;
#X connect 1 0 25 0;
#X connect 2 0 19 0;
#X connect 2 0 21 0;
#X connect 2 0 27 0;
#X connect 3 0 34 1;
#X connect 4 0 15 2;
#X connect 5 0 6 0;
#X connect 6 0 15 1;
#X connect 7 0 15 0;
#X connect 7 0 2 0;
#X connect 9 0 12 0;
#X connect 11 0 5 0;
#X connect 12 0 7 0;
#X connect 13 0 26 0;
#X connect 15 0 8 0;
#X connect 15 0 35 1;
#X connect 16 0 25 1;
#X connect 17 0 0 0;
#X connect 18 0 26 1;
#X connect 19 0 17 0;
#X connect 20 0 31 0;
#X connect 21 0 34 0;
#X connect 22 0 33 0;
#X connect 23 0 16 0;
#X connect 24 0 18 0;
#X connect 25 0 10 0;
#X connect 26 0 14 0;
#X connect 28 0 30 0;
#X connect 28 0 20 0;
#X connect 29 0 32 0;
#X connect 29 0 22 0;
#X connect 30 0 23 0;
#X connect 31 0 23 0;
#X connect 32 0 24 0;
#X connect 33 0 24 0;
#X connect 34 0 35 0;
#X connect 35 0 0 0;
#X coords 0 0 1 1 85 60 0;
